<?xml version="1.0" encoding="UTF-8"?>
<svg xmlns="http://www.w3.org/2000/svg" viewBox="0 0 200 200" width="200" height="200">
  <circle cx="100" cy="100" r="85" fill="none" stroke="#015b63" stroke-width="1.5"
          stroke-dasharray="6 2.5" stroke-linecap="round"/>
  <g transform="translate(-49.19 -75.94) scale(1.0036)">
    <g xmlns="http://www.w3.org/2000/svg">
    <g>
      <g>
        <path d="M115.7,188.3c-2.3,0-4.4-.7-6.2-2-3.7-2.7-5.7-6.5-5.8-11.2.2-3.9,1.5-7,4.2-9.3.7-.7,1.5-1.3,2.3-1.9.5-.4,1-.8,1.5-1.2,2.3-2,4.2-4.5,5.9-7.7.9-1.8,2-3.9,3.6-5.6,2.9-3.1,6.6-4.5,10.8-4.2,4.7.3,8.3,2.7,10.9,7,.5.9,1.1,1.9,1.6,2.8.4.6.7,1.3,1.1,1.9,1.5,2.6,3.6,4.9,6.6,7.2.2.2.3.5,0,.7-.2.2-.5.3-.7,0-3.1-2.4-5.3-4.8-6.9-7.5-.4-.6-.7-1.3-1.1-1.9-.5-.9-1-1.9-1.6-2.8-2.4-4-5.8-6.2-10.1-6.6-4-.3-7.3,1-10,3.9-1.5,1.6-2.6,3.6-3.5,5.4-1.7,3.3-3.7,6-6.1,8-.5.4-1,.8-1.5,1.2-.8.6-1.5,1.2-2.2,1.9-2.4,2.2-3.7,4.9-3.8,8.5.1,4.4,2,7.9,5.4,10.4,2,1.4,4.3,2,6.8,1.8,2-.2,3.8-1,5.3-1.7.5-.3,1.1-.5,1.6-.8,1.1-.5,2.2-1.1,3.3-1.6,1.8-.8,3.5-1.1,5.2-.7,1.5.3,2.9.9,4,1.5.2.1.3.4.2.7-.1.2-.4.3-.7.2-1.2-.6-2.4-1.2-3.8-1.4-1.5-.3-3.1,0-4.6.7-1.1.5-2.2,1.1-3.3,1.6-.5.3-1.1.5-1.6.8-1.6.8-3.5,1.6-5.6,1.8-.4,0-.9,0-1.3,0Z" fill="#015b63" />
        <path d="M115.7,188.8c-2.4,0-4.6-.7-6.5-2.1-3.8-2.8-5.9-6.8-6.1-11.6.2-4.1,1.6-7.3,4.3-9.7.7-.6,1.5-1.3,2.2-1.9.5-.4,1-.8,1.5-1.2,2.3-1.9,4.1-4.4,5.7-7.5.9-1.8,2.1-3.9,3.7-5.7,3-3.2,6.8-4.7,11.2-4.4,4.9.3,8.7,2.8,11.3,7.3.5.9,1,1.8,1.5,2.7.4.7.7,1.3,1.1,2,1.4,2.5,3.5,4.8,6.5,7.1.4.3.5,1,.2,1.4-.2.2-.4.3-.7.4-.3,0-.5,0-.7-.2-3.2-2.5-5.4-4.9-7-7.7-.4-.6-.7-1.3-1.1-1.9-.5-1-1-1.9-1.5-2.8-2.3-3.9-5.6-6-9.7-6.3-3.8-.3-7,1-9.6,3.7-1.5,1.6-2.5,3.5-3.4,5.2-1.7,3.4-3.8,6.1-6.2,8.2-.5.4-1,.8-1.5,1.2-.8.6-1.5,1.2-2.2,1.9-2.3,2.1-3.5,4.7-3.7,8.2.1,4.2,1.9,7.5,5.2,9.9,1.9,1.4,4.1,1.9,6.5,1.7,1.9-.2,3.7-1,5.1-1.7.5-.3,1.1-.5,1.6-.8,1.1-.5,2.2-1.1,3.3-1.6,1.9-.9,3.7-1.1,5.5-.8,1.5.3,3,.9,4.2,1.5.2.1.4.3.5.6s0,.5,0,.8c-.2.5-.8.7-1.3.5-1.1-.6-2.4-1.1-3.7-1.4-1.4-.3-2.9,0-4.3.6-1.1.5-2.2,1.1-3.2,1.6-.5.3-1.1.5-1.6.8-1.6.8-3.5,1.6-5.8,1.9-.5,0-.9,0-1.4,0ZM109.5,185.7c0,0,.2.1.2.2.2.1.3.2.5.4-.2-.1-.4-.2-.5-.4,0,0-.2-.1-.2-.2ZM126.1,184c-.4.2-.8.4-1.2.6.4-.2.8-.4,1.2-.6ZM130.8,182.7c-.8,0-1.7.1-2.5.4,1.3-.4,2.5-.5,3.7-.3-.4,0-.8-.1-1.2-.1ZM110.2,164.4c-.5.4-1,.8-1.4,1.2.5-.4.9-.8,1.4-1.2ZM146.5,159.6c1.3,1.7,3,3.4,5.2,5-2.1-1.7-3.8-3.3-5.2-5ZM111.3,163.5c-.3.3-.6.5-1,.8,0,0,0,0,0,0,.3-.3.7-.5,1-.8ZM130.7,145.6c-3.6,0-6.8,1.4-9.3,4.1-1.6,1.7-2.7,3.7-3.6,5.5-1,1.9-2,3.6-3.2,5,1.2-1.5,2.3-3.1,3.2-5,.9-1.8,2-3.8,3.6-5.5,2.8-3,6.3-4.4,10.4-4.1,2.6.2,4.9,1,6.9,2.6-1.9-1.5-4.2-2.4-6.9-2.6-.4,0-.7,0-1.1,0ZM142.4,152.7c.2.3.4.7.6,1-.2-.4-.4-.7-.6-1Z" fill="#015b63" />
      </g>
      <g>
        <path d="M104.7,161.8c-1.4,0-2.9-.4-4.3-1.2-3-1.8-5-4.4-6.1-8.2-.9-3.1-.9-6.1.1-8.8,1.1-2.9,2.9-4.7,5.5-5.4,2.5-.7,4.9-.2,7.2,1.5,2.7,1.9,4.5,4.6,5.4,8,.2.9.4,1.8.5,2.6,0,.4.1.8.2,1.2,0,.2,0,.3-.1.4,0,2.6-.7,4.7-2,6.5-1.6,2.2-3.9,3.4-6.3,3.4ZM102,138.9c-.6,0-1.2,0-1.8.3-2.3.6-3.9,2.2-4.9,4.8-1,2.5-1,5.3-.1,8.2,1.1,3.5,2.9,6,5.7,7.6,3.3,2,7.2,1.2,9.3-1.9,1.2-1.7,1.8-3.8,1.8-6.3,0,0,0-.2,0-.3,0-.3,0-.6-.1-.9-.1-.8-.2-1.7-.5-2.5-.8-3.2-2.5-5.7-5-7.5-1.5-1.1-3-1.6-4.6-1.6Z" fill="#015b63" />
        <path d="M104.7,162.3c-1.5,0-3.1-.4-4.6-1.3-3.1-1.8-5.2-4.6-6.4-8.5-1-3.2-.9-6.3.1-9.2,1.1-3,3.1-5,5.9-5.7,2.6-.7,5.2-.2,7.7,1.6,2.8,2,4.6,4.8,5.5,8.3.2.9.4,1.8.5,2.7,0,.4.1.8.2,1.2,0,.2,0,.5-.1.7,0,2.6-.8,4.8-2.1,6.7-1.6,2.3-4.1,3.6-6.8,3.6ZM102.1,160.8c2.1.8,4.3.6,6.1-.4-1.8,1-4,1.2-6.1.4ZM98.5,158.5c.7.6,1.4,1.2,2.2,1.6.3.2.7.4,1,.5-.3-.1-.7-.3-1-.5-.8-.5-1.5-1-2.2-1.6ZM102,139.4c-.6,0-1.1,0-1.7.2-2.1.6-3.6,2.1-4.5,4.5-.9,2.4-.9,5.1,0,7.9,1,3.4,2.8,5.8,5.5,7.3,3.1,1.8,6.7,1.1,8.7-1.7,1.1-1.6,1.7-3.6,1.7-6,0-.1,0-.2,0-.3,0-.2,0-.5-.1-.7-.1-.8-.2-1.7-.4-2.5-.8-3.1-2.4-5.5-4.8-7.2-1.4-1-2.8-1.5-4.3-1.5ZM112.7,151.3c0,.1,0,.2,0,.3,0,1.9-.3,3.6-1,5,.6-1.4,1-2.9,1-4.7,0-.1,0-.2.1-.3,0,0,0-.2,0-.3ZM95,143.3c0,.1-.1.3-.2.4-1,2.7-1,5.5-.1,8.5.2.8.5,1.5.8,2.2-.3-.7-.6-1.4-.8-2.2-.9-3-.9-5.9.1-8.5,0-.1.1-.3.2-.4ZM112.4,149.7c0,.2,0,.4,0,.6,0,.2,0,.3,0,.5,0-.2,0-.3,0-.5,0-.2,0-.4,0-.6ZM107.1,140.2c1.8,1.3,3.2,3.1,4.1,5.2-.9-2.1-2.3-3.8-4.1-5.2ZM102,138.4c1.6,0,3.1.5,4.6,1.5-2.1-1.4-4.3-1.9-6.6-1.2-.2,0-.3,0-.5.1.2,0,.3,0,.5-.1.7-.2,1.3-.3,2-.3Z" fill="#015b63" />
      </g>
      <g>
        <path d="M157,161.8c-.4,0-.8,0-1.2,0-2.5-.4-4.5-1.8-5.9-4.2-1-1.7-1.4-3.7-1.4-5.9,0-3.9,1.4-7.3,3.9-10.1,1.7-2,3.7-3.1,5.9-3.5,3.1-.5,5.7.5,7.6,3.1,1.4,1.9,2.1,4.2,2.1,7.4,0,0,0,0,0,0-.3,4.9-2.2,8.7-5.8,11.4-1.6,1.2-3.4,1.9-5.2,1.9ZM159.8,138.9c-.4,0-.9,0-1.3.1-2,.3-3.7,1.4-5.3,3.1-2.3,2.6-3.5,5.8-3.6,9.5,0,2,.4,3.8,1.3,5.4,1.2,2.2,2.9,3.4,5.1,3.7,2,.3,3.9-.3,5.7-1.6,3.3-2.5,5.2-6.1,5.4-10.7,0-3-.6-5.1-1.9-6.8-1.4-1.9-3.2-2.8-5.3-2.8Z" fill="#015b63" />
        <path d="M157,162.3c-.4,0-.8,0-1.2,0-2.7-.4-4.8-1.9-6.2-4.5-1-1.8-1.5-3.9-1.5-6.1,0-4,1.4-7.5,4-10.4,1.8-2,3.8-3.2,6.2-3.6,3.3-.6,6,.5,8.1,3.3,1.5,2,2.2,4.3,2.2,7.7-.3,5.1-2.3,9.1-6,11.9-1.7,1.3-3.6,2-5.5,2ZM156,161.2c1.4.2,2.8,0,4.1-.6-1.3.6-2.7.8-4.1.6ZM159.8,139.4c-.4,0-.8,0-1.2.1-1.9.3-3.5,1.3-5,3-2.3,2.5-3.4,5.6-3.5,9.1,0,1.9.4,3.6,1.2,5.1,1.1,2,2.7,3.2,4.8,3.5,1.9.3,3.6-.2,5.3-1.5,3.2-2.4,5-5.9,5.2-10.3,0-2.8-.6-4.8-1.8-6.4-1.3-1.7-3-2.6-4.9-2.6ZM167.5,148.4c-.2,3.8-1.5,7-3.8,9.5,2.3-2.5,3.6-5.6,3.8-9.4h0ZM156.6,139c-1.4.6-2.6,1.5-3.8,2.8-2.4,2.7-3.7,6-3.7,9.8,0,2.1.4,4,1.3,5.6,0,.2.2.3.3.5,0-.1-.2-.3-.3-.5-.9-1.7-1.4-3.6-1.3-5.6,0-3.8,1.3-7.1,3.7-9.8,1.2-1.3,2.4-2.2,3.8-2.8ZM166.6,143.2s0,0,0,0c0,0,0,0,0,0ZM159.8,138.4c2.3,0,4.2,1,5.7,3,.4.6.8,1.2,1.1,1.8-.3-.7-.6-1.3-1.1-1.8-1.8-2.4-4.1-3.3-7-2.9.4,0,.9-.1,1.3-.1Z" fill="#015b63" />
      </g>
      <g>
        <path d="M141.4,144.2c-.2,0-.4,0-.6,0-2.1-.2-3.8-1.1-5.3-2.8-1.5-1.7-2.4-3.9-2.7-6.4-.5-4,.4-7.6,2.6-10.8,1.4-2,3.2-3.3,5.3-4,3.1-.9,6.3.2,8.3,2.8,1.4,1.8,2.3,4,2.5,6.5,0,.3,0,.7,0,1v.4s0,0,0,0c-.2,4.5-1.6,7.9-4.3,10.5-1.8,1.7-3.8,2.5-5.9,2.5ZM142.8,121c-.6,0-1.2,0-1.8.3-1.9.6-3.5,1.8-4.8,3.6-2.1,3-2.9,6.4-2.5,10.1.3,2.3,1.1,4.3,2.5,5.8,1.3,1.5,2.8,2.3,4.6,2.4,2.2.2,4.1-.6,5.8-2.2,2.5-2.4,3.8-5.6,4-9.8v-.4c0-.3,0-.6-.1-1-.2-2.4-1-4.3-2.3-6-1.4-1.8-3.4-2.8-5.4-2.8Z" fill="#015b63" />
        <path d="M141.4,144.7c-.2,0-.5,0-.7,0-2.2-.2-4.1-1.2-5.7-2.9-1.6-1.8-2.5-4-2.9-6.6-.5-4.1.4-7.9,2.7-11.2,1.5-2.1,3.4-3.5,5.6-4.1,3.3-1,6.7.2,8.9,3,1.5,1.9,2.4,4.2,2.6,6.8,0,.3,0,.6,0,.9v.5s0,0,0,.1c-.2,4.6-1.6,8.2-4.4,10.9-1.9,1.8-4,2.7-6.3,2.7ZM140.4,143.6c.1,0,.3,0,.4,0,0,0,0,0,.1,0,0,0,0,0-.1,0-.1,0-.3,0-.4,0ZM142.8,121.5c-.6,0-1.1,0-1.7.2-1.8.5-3.3,1.7-4.5,3.4-2,2.9-2.8,6.1-2.4,9.8.3,2.2,1.1,4.1,2.4,5.6,1.2,1.4,2.6,2.1,4.3,2.3,2,.2,3.8-.5,5.4-2.1,2.4-2.3,3.7-5.4,3.8-9.5v-.3c0-.3,0-.6-.1-1-.2-2.3-.9-4.1-2.2-5.8-1.3-1.6-3.1-2.6-5-2.6ZM151.1,130.8v.2c-.1,4.4-1.5,7.7-4.1,10.2,0,0,0,0,0,0,0,0,0,0,0,0,2.6-2.5,4-5.9,4.1-10.2v-.3ZM150.9,129.3c0,.1,0,.3,0,.4,0,0,0,.2,0,.2,0,0,0-.2,0-.2,0-.1,0-.3,0-.4ZM138.3,121.9c-1,.7-1.8,1.5-2.6,2.6-.8,1.1-1.4,2.2-1.8,3.4.4-1.2,1-2.3,1.8-3.4.7-1.1,1.6-1.9,2.6-2.6ZM142.8,120.5c2.2,0,4.3,1.1,5.8,3,0,.1.2.2.3.4,0-.1-.2-.2-.3-.4-1.9-2.4-4.7-3.4-7.4-2.8.5-.1,1.1-.2,1.6-.2Z" fill="#015b63" />
      </g>
      <g>
        <path d="M120.2,144.2c-1.8,0-3.5-.6-5-1.9-2.4-1.9-4-4.5-4.7-7.8-.2-.8-.3-1.7-.3-2.3,0-.2,0-.4,0-.6,0,0,0,0,0,0,0-3.6.8-6.1,2.4-8.3,1.8-2.4,4.1-3.5,6.8-3.4,2.1,0,4.1,1,5.8,2.8,1.9,1.9,3.1,4.3,3.7,7.2.7,3.5.3,6.7-1.2,9.5-1.4,2.7-3.4,4.3-6,4.7-.5,0-.9.1-1.4.1ZM111.1,131.6c0,.2,0,.4,0,.6,0,.6.2,1.4.3,2.2.7,3.1,2.1,5.5,4.3,7.2,1.7,1.4,3.6,1.9,5.6,1.5,2.3-.4,4.1-1.8,5.3-4.2,1.4-2.7,1.7-5.5,1.1-8.8-.5-2.7-1.7-4.9-3.4-6.7-1.6-1.6-3.3-2.4-5.2-2.5-2.4-.1-4.4.9-5.9,3-1.5,2-2.1,4.3-2.2,7.6Z" fill="#015b63" />
        <path d="M120.2,144.7c-1.9,0-3.7-.7-5.4-2-2.5-1.9-4.1-4.6-4.9-8-.2-.8-.3-1.7-.4-2.3h0c0-.3,0-.5,0-.6,0,0,0-.1,0-.2,0-3.7.8-6.3,2.5-8.6,1.9-2.5,4.3-3.7,7.2-3.6,2.3,0,4.3,1.1,6.2,2.9,2,2,3.3,4.5,3.8,7.4.7,3.6.3,6.9-1.2,9.8-1.5,2.8-3.6,4.5-6.4,5-.5,0-1,.1-1.4.1ZM116,142.4c1.7,1.1,3.5,1.6,5.4,1.2.2,0,.3,0,.5,0-.2,0-.3,0-.5,0-1.9.3-3.7,0-5.4-1.2ZM111.6,131.6c0,.1,0,.3,0,.5,0,.6.2,1.4.3,2.2.7,3,2,5.2,4.1,6.9,1.6,1.3,3.4,1.8,5.2,1.4,2.2-.4,3.8-1.7,5-3.9,1.3-2.5,1.7-5.3,1-8.5-.5-2.6-1.6-4.7-3.3-6.4-1.5-1.5-3.1-2.3-4.8-2.3-2.2,0-4,.8-5.5,2.8-1.4,1.9-2,4.1-2.1,7.3ZM127.3,138.8c0,.1-.1.2-.2.3,0,.1-.1.2-.2.3,0,0,.1-.2.2-.3,0-.1.1-.2.2-.3ZM110.9,134.1c0,.1,0,.3,0,.4,0,.2,0,.3.1.5,0-.2,0-.3-.1-.5,0-.1,0-.3,0-.4ZM111,127.7c-.3,1.2-.4,2.5-.5,4,0,.1,0,.3,0,.5h0c0,.2,0,.3,0,.4,0-.1,0-.2,0-.3,0-.2,0-.4,0-.6,0,0,0,0,0,0,0-1.5.2-2.8.5-4ZM128.1,129.3c0,.2.1.5.2.7,0,0,0,.2,0,.3,0,0,0-.2,0-.3,0-.2-.1-.5-.2-.7ZM111,127.7s0,0,0,0c0,0,0,0,0,0ZM111,127.6h0s0,0,0,0ZM111.3,126.6s0,0,0,0c0,0,0,0,0,0ZM113.3,123.2c-.1.2-.3.3-.4.5-.7.9-1.2,1.8-1.5,2.9.4-1.1.9-2,1.5-2.9.1-.2.3-.4.4-.5ZM119.1,120.5s0,0,.1,0c.2,0,.3,0,.5,0-.2,0-.3,0-.5,0,0,0,0,0-.1,0Z" fill="#015b63" />
      </g>
    </g>
    <g>
      <g>
        <path d="M172.8,229.6c-6.5,0-12.8-2.1-18-6-4.6-3.4-8-8-10.1-13.3-1.3-3.4-2-7.1-2-10.8s0-2.6.2-3.9c1.8-14.3,13.6-25.3,28.1-26.1.6,0,1.2,0,1.7,0,4.6,0,9,1,13,3,4.3,2.1,8.1,5.2,11,9,4,5.2,6,11.5,6,18.1,0,16.6-13.5,30.1-30.1,30.1ZM172.8,170.5c-.6,0-1.1,0-1.7,0-14,.8-25.4,11.4-27.1,25.3-.2,1.2-.2,2.5-.2,3.7,0,3.6.6,7.1,1.9,10.4,2,5.1,5.3,9.6,9.7,12.9,5.1,3.8,11.1,5.8,17.4,5.8,16,0,29.1-13,29.1-29.1s-2-12.4-5.8-17.5c-2.8-3.7-6.4-6.7-10.6-8.7-3.9-1.9-8.2-2.9-12.6-2.9Z" fill="#015b63" />
        <path d="M172.8,230.1c-6.7,0-13-2.1-18.3-6.1-4.6-3.5-8.2-8.1-10.2-13.5-1.3-3.5-2-7.2-2-11s0-2.6.3-3.9c1.9-14.6,13.9-25.7,28.6-26.6.6,0,1.2,0,1.8,0,4.6,0,9.1,1,13.3,3,4.4,2.1,8.2,5.3,11.2,9.2,4,5.3,6.1,11.7,6.1,18.4,0,16.9-13.7,30.6-30.6,30.6ZM172.8,229.1c16.3,0,29.6-13.3,29.6-29.6,0,16.3-13.3,29.6-29.6,29.6ZM172.8,171c-.6,0-1.1,0-1.6,0-13.7.8-24.9,11.2-26.7,24.8-.2,1.2-.2,2.4-.2,3.7,0,3.5.6,7,1.9,10.2,1.9,5,5.2,9.4,9.6,12.6,5,3.7,10.9,5.7,17.1,5.7,15.7,0,28.6-12.8,28.6-28.6s-2-12.2-5.7-17.2c-2.7-3.6-6.3-6.6-10.4-8.6-3.9-1.9-8-2.8-12.4-2.8ZM143.2,199.7c0,3.6.7,7.1,2,10.5,2,5.2,5.4,9.7,9.9,13.1,1.2.9,2.4,1.7,3.7,2.3-1.3-.7-2.5-1.5-3.7-2.3-4.5-3.4-7.9-7.9-9.9-13.1-1.3-3.3-1.9-6.9-2-10.5ZM143.2,199.5h0,0ZM202.3,199.5h0s0,0,0,0ZM156.2,175c-6.8,4.6-11.7,12-12.8,20.7,0,.6-.1,1.2-.2,1.8,0-.6.1-1.2.2-1.8,1.1-8.7,5.9-16.1,12.8-20.7ZM199.8,187.5s0,0,0,0c0,0,0,0,0,0ZM186.7,173.4c3.8,2,7.2,4.9,9.7,8.3,1.4,1.8,2.5,3.7,3.4,5.7-.9-2-2-3.9-3.4-5.7-2.6-3.4-5.9-6.3-9.7-8.3ZM172.8,170c-.5,0-1,0-1.4,0,.5,0,1,0,1.4,0ZM172.8,170h0,0Z" fill="#015b63" />
      </g>
      <g>
        <path d="M143.5,196.3c-.3,0-.5-.2-.5-.5,0-.3.2-.5.5-.5,14-.8,25.4-11.4,27.1-25.3,0-.3.3-.5.6-.4.3,0,.5.3.4.6-1.8,14.3-13.6,25.3-28.1,26.1,0,0,0,0,0,0Z" fill="#015b63" />
        <path d="M143.5,196.8c-.5,0-1-.4-1-.9,0-.5.4-1,.9-1.1,13.7-.8,24.9-11.2,26.7-24.8,0-.3.2-.5.4-.7.2-.2.5-.2.7-.2.5,0,.9.6.9,1.1-1.9,14.6-13.9,25.8-28.6,26.6,0,0,0,0,0,0ZM143.5,195.8v.5-.5c14.2-.8,25.8-11.6,27.6-25.7-1.8,14.1-13.4,24.9-27.6,25.7h0Z" fill="#015b63" />
      </g>
      <g>
        <path d="M145.5,210.7c-.1,0-.3,0-.4,0-.3,0-.5-.2-.5-.5,0-.3.2-.5.5-.5.1,0,.2,0,.3,0,20.7,0,38.1-16.2,39.6-36.8,0-.3.3-.5.5-.5.3,0,.5.3.5.5-1.5,21.2-19.3,37.7-40.6,37.7Z" fill="#015b63" />
        <path d="M145.5,211.2c-.1,0-.3,0-.4,0-.3,0-.5-.1-.7-.3-.2-.2-.3-.5-.3-.7,0-.3.1-.6.3-.7.2-.2.5-.2.7-.2,0,0,.2,0,.3,0,20.5,0,37.6-16,39.1-36.3,0-.5.5-.9,1.1-.9.6,0,1,.5.9,1.1-1.5,21.4-19.6,38.2-41.1,38.2ZM145.8,210.2h0,0ZM145.2,210.2s0,0,0,0c0,0,0,0,0,0Z" fill="#015b63" />
      </g>
      <g>
        <path d="M156.3,223.8c-.4,0-.8,0-1.2,0-.3,0-.5-.2-.5-.5,0-.3.2-.5.5-.5.4,0,.8,0,1.1,0,21.9,0,39.7-17.8,39.7-39.7s0-.9,0-1.3c0-.3.2-.5.5-.5,0,0,0,0,0,0,.3,0,.5.2.5.5,0,.4,0,.9,0,1.3,0,22.4-18.2,40.7-40.7,40.7Z" fill="#015b63" />
        <path d="M156.3,224.3c-.4,0-.8,0-1.2,0-.6,0-1-.5-1-1,0-.6.4-1,1-1h0c.4,0,.8,0,1.1,0,21.6,0,39.2-17.6,39.2-39.2s0-.8,0-1.3c0-.3,0-.5.3-.7.2-.2.4-.3.7-.3h0c.6,0,1,.4,1,1,0,.4,0,.9,0,1.3,0,22.7-18.5,41.2-41.2,41.2ZM155.1,223.2c.4,0,.8,0,1.2,0-.4,0-.8,0-1.2,0ZM196.4,181.8c0,.4,0,.9,0,1.3,0-.4,0-.9,0-1.3Z" fill="#015b63" />
      </g>
    </g>
  </g>
  
  </g>
</svg>
