<?xml version="1.0" encoding="UTF-8"?>
<svg xmlns="http://www.w3.org/2000/svg" viewBox="0 0 200 200" width="200" height="200">
  <circle cx="100" cy="100" r="85" fill="none" stroke="#015b63" stroke-width="1.5"
          stroke-dasharray="6 2.5" stroke-linecap="round"/>
  <g transform="translate(-370.39 -106.91) scale(1.2061)">
    <g xmlns="http://www.w3.org/2000/svg">
    <g>
      <path d="M432.3,215.1h-13c-2.1,0-3.8-1.7-3.8-3.8v-7.7h-7.7c-2.1,0-3.8-1.7-3.8-3.8v-13c0-2.1,1.7-3.8,3.8-3.8h7.7v-7.7c0-2.1,1.7-3.8,3.8-3.8h13c2.1,0,3.8,1.7,3.8,3.8v7.7h7.7c2.1,0,3.8,1.7,3.8,3.8v13c0,2.1-1.7,3.8-3.8,3.8h-7.7v7.7c0,2.1-1.7,3.8-3.8,3.8ZM407.8,183.9c-1.6,0-2.8,1.3-2.8,2.8v13c0,1.6,1.3,2.8,2.8,2.8h8.2c.3,0,.5.2.5.5v8.2c0,1.6,1.3,2.8,2.8,2.8h13c1.6,0,2.8-1.3,2.8-2.8v-8.2c0-.3.2-.5.5-.5h8.2c1.6,0,2.8-1.3,2.8-2.8v-13c0-1.6-1.3-2.8-2.8-2.8h-8.2c-.3,0-.5-.2-.5-.5v-8.2c0-1.6-1.3-2.8-2.8-2.8h-13c-1.6,0-2.8,1.3-2.8,2.8v8.2c0,.3-.2.5-.5.5h-8.2Z" fill="#015b63" />
      <path d="M432.3,215.6h-13c-2.4,0-4.3-1.9-4.3-4.3v-7.2h-7.2c-2.4,0-4.3-1.9-4.3-4.3v-13c0-2.4,1.9-4.3,4.3-4.3h7.2v-7.2c0-2.4,1.9-4.3,4.3-4.3h13c2.4,0,4.3,1.9,4.3,4.3v7.2h7.2c2.4,0,4.3,1.9,4.3,4.3v13c0,2.4-1.9,4.3-4.3,4.3h-7.2v7.2c0,2.4-1.9,4.3-4.3,4.3ZM416,211.3c0,1.8,1.5,3.3,3.3,3.3h13c1.8,0,3.3-1.5,3.3-3.3v-7.7c0-.3.2-.5.5-.5h7.7c1.8,0,3.3-1.5,3.3-3.3v-13,13c0,1.8-1.5,3.3-3.3,3.3h-8.2v8.2c0,1.8-1.5,3.3-3.3,3.3h-13c-1.8,0-3.3-1.5-3.3-3.3ZM407.8,184.4c-1.3,0-2.3,1-2.3,2.3v13c0,1.3,1,2.3,2.3,2.3h8.2c.6,0,1,.4,1,1v8.2c0,1.3,1,2.3,2.3,2.3h13c1.3,0,2.3-1,2.3-2.3v-8.2c0-.6.4-1,1-1h8.2c1.3,0,2.3-1,2.3-2.3v-13c0-1.3-1-2.3-2.3-2.3h-8.2c-.6,0-1-.4-1-1v-8.2c0-1.3-1-2.3-2.3-2.3h-13c-1.3,0-2.3,1-2.3,2.3v8.2c0,.6-.4,1-1,1h-8.2ZM404.4,199.7c0,1.8,1.5,3.3,3.3,3.3h7.7c.3,0,.5.2.5.5v-.5h-8.2c-1.8,0-3.3-1.5-3.3-3.3ZM435.6,175.2v8.2h.5c-.3,0-.5-.2-.5-.5v-7.7ZM415.5,183.4h.5v-.5c0,.3-.2.5-.5.5Z" fill="#015b63" />
    </g>
    <g>
      <g>
        <path d="M405.2,208.8c.7.8,1.7,1.1,2.7,1.4s3.8.9,2.4,2.6-4,1.1-5.8,1.2-2,0-3,0-2.6.4-3.1-.8c-.3-.7-.3-1.8-.4-2.6s-.3-1.9-.5-2.9c-.3-1.9-.7-3.8-1.1-5.7-.8-4-1.8-7.9-2.9-11.8,0-.3-.6-.5-.8-.2-4.5,5.5-8.9,11.1-13.4,16.6-.3.4,0,1.1.6.8,4.7-2.6,10.2,1.2,9.5,6.5l.5-.5c-7.2,0-14.3.1-21.5.2h-10.6c-3.4.1-6.9.3-9.9-1.6-5.2-3.1-8.4-9.3-8.4-15.3,0-3.1.9-6.2,2.4-8.8.5-.8,2.6-4.3,3.2-1.7.4,1.5,0,3.3-.2,4.9-.3,5.9.5,13.4,6.7,16.1.6.3,1.1-.6.5-.9-3.1-1.4-5-4.3-5.8-7.5s-.3-7.7-.2-11.5-1.1-4.3-3.1-2.6c-2.3,1.9-3.6,5.5-4.2,8.3-1.3,6,.6,12.2,4.7,16.7s5,4.3,8.2,4.8c3.6.6,7.3.2,10.9.2,9.1,0,18.1-.2,27.2-.3s.5-.2.5-.5c.8-6.1-5.7-10.4-11-7.4l.6.8c4.5-5.5,8.9-11.1,13.4-16.6l-.8-.2c1.4,5,2.6,10,3.6,15.1.4,2.4.8,4.8,1.2,7.2s1.4,2.2,3.1,2.2,5.1.1,7.6-.2,3-.9,3.5-2.2c1.1-3.1-4.4-3.2-5.7-4.6s-1.1.2-.7.7h0Z" fill="#015b63" />
        <path d="M403.9,215.6c-.4,0-.8,0-1.3,0-.7,0-1.4,0-2.2,0-1.5,0-3.2-.2-3.6-2.6-.2-.9-.3-1.8-.4-2.7-.2-1.5-.5-3-.7-4.4-.8-4.4-1.8-8.8-3-13.2l-10.2,12.6c1.8-.1,3.6.3,5.1,1.4,2.5,1.7,3.8,4.5,3.4,7.5,0,.6-.5.9-1,.9l-27.2.3c-.9,0-1.8,0-2.8,0-2.7,0-5.5.2-8.2-.2-3.1-.5-6-2.1-8.5-4.9-4.3-4.7-6.1-11.1-4.8-17.2.3-1.4,1.5-6.1,4.4-8.6,1-.8,1.8-.7,2.3-.5,1.1.5,1.7,2.2,1.6,3.5,0,1,0,2.1-.1,3.1-.2,2.9-.3,5.5.3,8.3.5,2,1.9,5.6,5.5,7.2.3.1.5.4.6.7,0,.3-.1.7-.4.9-.3.2-.7.3-1,.1-5.1-2.2-7.4-7.8-7-16.6,0-.5,0-1,.1-1.5.1-1.1.3-2.3,0-3.3-.1-.5-.2-.6-.2-.6-.2,0-.9.5-2.1,2.4-1.5,2.6-2.4,5.5-2.4,8.6,0,5.9,3.2,11.9,8.1,14.8,2.8,1.7,6.1,1.6,9.2,1.6l31.6-.3c0-2-1-3.8-2.6-4.9-1.9-1.3-4.2-1.4-6.2-.2-.4.2-.9.2-1.2-.2-.3-.4-.3-.9,0-1.3l13.4-16.6c.2-.3.6-.4.9-.3.4,0,.7.4.8.7,1.1,4,2.1,8,2.9,11.8.4,1.9.8,3.8,1.1,5.8.2,1,.3,1.9.5,2.9,0,.3,0,.6,0,.9,0,.6,0,1.1.3,1.6.2.6,1,.6,2,.5.2,0,.4,0,.6,0h3c.3,0,.6,0,1,0,1.6,0,3.5,0,4.4-1,.2-.2.3-.5.3-.7-.2-.5-1.5-.9-2.1-1.1h-.3c-1.1-.4-2.1-.8-2.9-1.7-.2-.3-.3-.6-.2-1,.1-.4.4-.6.8-.7.3,0,.7,0,.9.3.4.4,1.3.7,2.2,1,1.5.5,3,1,3.6,2.2.3.5.3,1.2,0,1.8-.6,1.6-2.5,2.3-3.9,2.5-1.4.2-2.8.2-4.2.2ZM401.4,214.6c.4,0,.8,0,1.2,0,1.2,0,2.5,0,3.7,0h0c-.3,0-.6,0-.9,0-.3,0-.7,0-1,0h-3c0,0-.2,0-.3,0h.2ZM349.6,213.5c.8.3,1.6.5,2.4.6,2.6.4,5.4.3,8,.2.9,0,1.9,0,2.8,0h8.6c0,0-14,0-14,0-2.6,0-5.4,0-7.9-.9ZM398.2,213.9c.1.2.3.3.5.4-.2,0-.3-.2-.5-.4ZM410.3,210.6c.4.2.6.5.8.9.2.5,0,1-.4,1.6,0,0-.2.2-.2.3.3-.3.6-.6.7-.9.2-.4.2-.8,0-1.1-.1-.3-.4-.6-.8-.8ZM390,213s0,0,0,0c0-2.2-1-4.1-2.7-5.5,1.7,1.3,2.7,3.3,2.7,5.5ZM396.9,206.8c.2,1.1.4,2.2.5,3.3,0,.4.1.8.2,1.2,0-.2,0-.3,0-.5-.1-1-.3-1.9-.5-2.9,0-.4-.1-.8-.2-1.1ZM405.6,208.4c.6.7,1.4,1,2.4,1.3h.3c.2.2.5.2.7.3-.3-.1-.6-.2-.9-.3-1-.4-2-.7-2.6-1.3ZM405.5,208.4l-.3.4.4-.3s0,0,0,0ZM347.4,202.5c1,1.9,2.4,3.3,4.2,4.1-1.7-.9-3.2-2.3-4.2-4.1ZM393.5,191.9c.8,3.1,1.6,6.2,2.3,9.2-.7-3-1.4-6.1-2.3-9.2ZM345.7,189.9c0,.5-.1.9-.1,1.4,0,.9,0,1.7,0,2.5,0-1.1,0-2.2.1-3.3,0-.2,0-.4,0-.6ZM344.4,184.8c-.3,0-.6.1-.9.4-2.2,1.8-3.3,5.1-3.8,6.9.4-1.5,1-3,1.9-4.4,1.8-3.1,2.8-2.9,3.1-2.9.1,0,.2,0,.3.1,0,0-.2-.1-.3-.2,0,0-.2,0-.3,0Z" fill="#015b63" />
      </g>
      <g>
        <path d="M352.5,206.6c-1.6-5.6-.5-11.6,1.6-16.9,2.3-5.7,6.3-10.4,10.5-14.8,8-8.3,17.6-16,21.2-27.4,1.7-5.5,1.3-12.2,5.5-16.7,2.2-2.4,5.2-3,8.4-2.7s6.1,1.1,8.5,3.1c2,1.7,3,4.2,5.4,5.4s4.2,1.1,6.3,1.7,4.4,2.8,3.5,5.6c-.9,2.9-3.6,4.4-6.4,5.1s-6.5.3-9.4,1.6-3.1,4.1-2.8,6.8c.6,6.8,3.8,13.7,1.7,20.5-.2.6.8.9,1,.3,1.9-6.2-.5-12.5-1.4-18.7-.3-1.7-.6-3.5-.2-5.2s1.7-2.7,3.5-3.2c3.1-.7,6.4-.5,9.5-1.5s4.4-2.3,5.4-4.6.8-4.1-.7-5.7c-1.5-1.6-3.8-2-5.8-2.4s-2.5-.5-3.6-1-2.5-2.1-3.5-3.4c-3.3-4.2-9.6-6.1-14.8-5.1s-8.3,7.3-9.3,12.6c-.6,3.2-1.1,6.3-2.3,9.4s-2.8,5.6-4.6,8.2c-3.8,5.3-8.6,9.8-13.2,14.4-4.9,4.9-9.8,10.1-12.7,16.5s-3.9,12.5-2.2,18.7c.2.6,1.1.4,1-.3h0Z" fill="#015b63" />
        <path d="M352,207.8c-.4,0-.8-.3-.9-.7-2-7.2,0-14.3,2.2-19,2.9-6.6,7.9-11.9,12.8-16.7.7-.7,1.5-1.5,2.2-2.2,3.8-3.8,7.8-7.7,11-12.1,2-2.8,3.5-5.4,4.5-8.1,1-2.6,1.5-5.2,2-7.9l.3-1.3c1.5-7.7,4.7-12.1,9.7-13,5.8-1,12.1,1.2,15.3,5.3l.3.4c.9,1.2,1.7,2.3,3,2.9,1,.5,2.2.7,3.3,1h.4c2,.5,4.3,1,5.8,2.6,1.5,1.6,1.7,4,.7,6.2-1,2.3-3,4-5.7,4.9-1.8.6-3.6.8-5.4,1-1.4.1-2.8.3-4.1.6-1.8.4-2.8,1.3-3.1,2.8-.3,1.6,0,3.4.2,5,.2,1.6.6,3.2.9,4.7,1,4.7,2,9.5.5,14.3-.1.4-.4.6-.7.7-.4,0-.8,0-1-.3-.2-.3-.3-.6-.2-.9,1.4-4.4.4-9-.6-13.5-.5-2.2-1-4.5-1.2-6.8-.2-2.7,0-6,3.1-7.3,1.8-.8,3.9-1,5.9-1.1,1.2-.1,2.5-.2,3.6-.5,1.8-.4,5.1-1.6,6.1-4.7.3-1,.3-1.9-.2-2.7-.5-1-1.6-1.8-3-2.2-.8-.2-1.6-.4-2.3-.5-1.4-.3-2.8-.6-4.1-1.2-1.6-.8-2.6-2-3.5-3.3-.6-.8-1.2-1.6-2-2.2-1.9-1.6-4.7-2.6-8.2-3-3.5-.3-6.1.5-8,2.5-2.7,2.9-3.5,7-4.1,10.9-.3,1.9-.7,3.8-1.2,5.6-2.9,9.4-9.9,16.3-16.7,23-1.5,1.5-3.1,3.1-4.6,4.6-3.8,3.9-7.9,8.7-10.4,14.7-1.7,4.1-3.3,10.4-1.6,16.6t0,0c.1.5-.2,1.1-.7,1.2,0,0-.2,0-.3,0ZM352.8,192.2c-1.4,4.2-2.1,9.4-.7,14.6h0c-1.5-5.3-.6-10.5.7-14.6ZM365.9,172.9c-4.2,4.2-8.4,8.9-11.2,14.4,2.5-5.1,6.2-9.2,9.5-12.7.5-.6,1.1-1.1,1.7-1.7ZM384.3,150.4c-1,2.4-2.4,4.8-4.2,7.3-.9,1.2-1.8,2.4-2.8,3.5,2.8-3.3,5.3-6.8,7-10.8ZM415.5,149.7c-.7,0-1.4.1-2.1.2-1.9.2-3.9.3-5.6,1.1-.7.3-1.2.7-1.6,1.1.7-.7,1.6-1.3,2.9-1.6,1.4-.3,2.8-.5,4.2-.6.7,0,1.4-.1,2.1-.2ZM421.9,147.2c-1.1,1-2.5,1.7-4.2,2.1.3,0,.6-.2.9-.3,1.3-.4,2.4-1,3.3-1.8ZM386.3,143.7c-.4,1.7-.8,3.4-1.4,5.1.2-.5.4-1,.5-1.5.4-1.2.6-2.4.9-3.6ZM419.8,137.7c.1,0,.2,0,.3,0,1.7.5,3,1.5,3.6,2.7.3.6.5,1.2.5,1.8,0-1.1-.4-2-1.1-2.8-.9-1-2.1-1.5-3.4-1.8ZM398.5,127.5c-.9,0-1.8,0-2.7.2-1.5.3-2.9.9-4,1.9,2-1.7,4.6-2.3,8-2,1.8.2,3.3.5,4.7,1-1.9-.7-4-1.1-6-1.1Z" fill="#015b63" />
      </g>
      <g>
        <path d="M387,137.7c.2,2.5.9,4.9,1.5,7.3s.9,4.3,3.1,5,4.2.5,5.7-.7,2-3.2,2.2-5c.3-2.9.4-5.9.4-8.8,0-.6-1-.6-1,0,0,2.8,0,5.6-.4,8.4-.2,2.3-.8,4.8-3.4,5.3s-2.5.2-3.5-.3-1.5-1.9-1.9-3c-.8-2.7-1.5-5.4-1.8-8.2s-1.1-.6-1,0h0Z" fill="#015b63" />
        <path d="M393.9,150.8c-.9,0-1.7-.1-2.4-.4-2.2-.8-2.8-2.9-3.3-4.8l-.2-.6c-.6-2.2-1.3-4.7-1.5-7.4h0c0-.3.1-.7.4-.8.3-.2.7-.2,1,0,.3.2.6.5.6.8.3,2.6,1,5.2,1.7,7.7l.2.6c.3,1.1.6,2.1,1.5,2.5.8.4,2.1.5,3.2.2,2.3-.5,2.8-2.7,3-4.9.3-2.7.4-5.5.3-8.3,0-.6.4-1,1-1h0c.6,0,1,.4,1,1,0,3.3,0,6.2-.4,8.9-.2,1.9-.7,4.1-2.4,5.4-1,.8-2.4,1.1-3.7,1.1ZM393,149.8c1.4.2,3,0,4-.8,1.2-.9,1.7-2.4,1.9-3.9-.3,2.1-1.2,4.1-3.6,4.6-.6.1-1.5.2-2.3,0ZM389,144.9l.2.6c.1.5.3,1,.4,1.4,0-.2-.1-.5-.2-.7l-.2-.6c0-.3-.1-.5-.2-.8ZM399.4,135.7c0,2.6,0,5.2-.3,7.7.2-2.3.3-4.9.3-7.7ZM387.5,137.6h-.5c0,0,.5,0,.5,0,0,0,0,0,0,0Z" fill="#015b63" />
      </g>
    </g>
  </g>
  
  </g>
</svg>
