<?xml version="1.0" encoding="UTF-8"?>
<svg id="Layer_1" xmlns="http://www.w3.org/2000/svg" width="2000" height="2000" version="1.1" viewBox="0 0 2000 2000">
  <!-- Generator: Adobe Illustrator 29.7.1, SVG Export Plug-In . SVG Version: 2.1.1 Build 8)  -->
  <path d="M1430.1,1291.4c-43.5,34.4-101.5,16.1-145.2,4.6v153.9h155.5c-4.1-70.8-10.3-158.5-10.3-158.5" fill="#242353"/>
  <path d="M1284.9,547.6v613.5c15.4-.8,38.8-1.1,58-2.2,96.1-5.3,115.3-33.2,120.7-39.1,33.1-36.2,31.7-64,49.1-74.7,0,0-1-20,12.7-20,2.8-.1,8.1,4.3,10.3,7.7,0,0,34.7,4,38.7,24.1.8,3.9,6.9,12,29.7,28.1,0,0,12.9,7.8,12.9,14.7,0,0,.8,5.1-9,8.8,0,0-15.8,7.6-55.2-2.1-30.7-7.5-54.4,38.8-50.2,80.8,9.5,95.1-28.9,126.8-31.2,139.6,0,0-2,69.7-3.3,123.1h146.2c1.9-8.6-.9-42.9-14.9-76.5-16.9-40.7-.5-60.2,8.5-72.3,11-18.3-8.7-21.3-8.7-21.3-4.1-1-10.7-.4-14.9-3.7-4.3-3.3-6.4-8.2-6.8-13.7,0-1.2.4-2,1.3-2.7,2-1.8,3.9-3.6,5.8-5.4,1.6-1.5,3.1-17.8,16.7-21.1,4.4-1.1,16.6-4.7,17.2-5.6,6.5-9.9,10.7-13.2,18.4-16.6,8.7,8.9,9,25.8,9.4,26.2,3.1,3.3,11.8,12.4,13.8,35.1,5,57.5,70.5,63,91.2,118.6,7.1,19,10,38.8,10,59,3.5-.5,28.4-26.5,6.5-60.5-22.6-34.9-20-55.2-12.7-64,7-8.3,17.9-8.6,25.9-6.2,5.5,1.7,9.6,5.2,11.5,9.9.6,1.5.5,3.2-.3,4.5-.8,1.3-2.2,1.6-3.6,1.9-4.8,1-9.2,3.4-11.1,9-2.4,7.1-.3,14.8,1.1,18.8,2.1,5.7,5.2,10.9,8.5,16.3l1.4,2.3c5.4,8.9,10.7,18.8,13.1,29.9l.3,1.2c1.5,6.7,5.1,22.8,0,36.8h46.7c8.1-60.6,95-552.9-563.6-902.2" fill="#242353"/>
  <path d="M382.3,1004.9c10,6.4,22.2,9.6,36.4,9.6s26.2-3.3,36.3-9.7c10-6.4,17.7-15.2,22.8-26.1,5.1-10.8,7.6-23.1,7.6-36.3s-2.6-25-7.6-35.8c-5.1-10.8-12.7-19.5-22.8-26-10-6.4-22.2-9.7-36.3-9.7s-26.4,3.3-36.4,9.7c-10,6.4-17.6,15.2-22.7,26.1-5.1,10.8-7.7,23-7.7,36.1s2.6,25.3,7.7,36.1c5.1,10.9,12.7,19.6,22.7,26M364.2,942.6c0-11.7,2.1-22.3,6.3-31.6,4.2-9.2,10.5-16.6,18.6-22,8.1-5.4,18.1-8.1,29.5-8.1s21.4,2.7,29.5,8.1c8.1,5.4,14.4,12.8,18.6,22,4.2,9.3,6.3,19.9,6.3,31.6s-2.1,22.6-6.3,31.9c-4.2,9.3-10.5,16.7-18.6,22-8.1,5.3-18.1,8-29.5,8s-21.4-2.7-29.5-8c-8.1-5.3-14.4-12.7-18.6-22-4.2-9.3-6.3-20-6.3-31.9" fill="#242353"/>
  <path d="M632.6,1005.5c10.1-6.1,17.9-14.7,23-25.5,5.2-10.8,7.8-23.4,7.8-37.4s-2.6-26-7.8-36.8c-5.2-10.8-12.9-19.4-23-25.6-10.1-6.2-22.6-9.3-37-9.3h-47v143.9h47c14.4,0,26.9-3.1,37-9.2M561.1,1004.5v-123.4h34.5c17.5,0,31.3,5.6,40.9,16.8,9.6,11.1,14.5,26.3,14.5,44.9s-4.9,34.1-14.5,45.1c-9.6,11-23.4,16.6-40.9,16.6h-34.5Z" fill="#242353"/>
  <polygon points="724.6 1014.7 809.8 1014.7 809.8 1004.5 737 1004.5 737 943.7 797.1 943.7 797.1 933.4 737 933.4 737 881.1 809.8 881.1 809.8 870.8 724.6 870.8 724.6 1014.7" fill="#242353"/>
  <path d="M954.3,934.3c6.5-6.6,9.8-15.2,9.8-25.5s-1.8-13.7-5.3-19.4c-3.6-5.7-8.9-10.3-15.8-13.6-6.9-3.3-15.5-5-25.4-5h-44.9v143.9h12.4v-67.4h27.8l49.4,67.3h0c0,.1,14.3.1,14.3.1l-50.4-68.5c12.1-1.3,21.5-5.3,27.9-11.8M951.7,909c0,9.3-2.9,16.3-8.7,21-5.8,4.6-14.4,7-25.4,7h-32.4v-55.9h32.4c10.8,0,19.2,2.6,25.2,7.6,5.9,5,8.9,11.9,8.9,20.3" fill="#242353"/>
  <polygon points="1051.7 893.7 1138.9 1014.8 1139 1014.9 1149.1 1014.7 1149.1 870.8 1136.7 870.8 1136.7 992.5 1049.5 871 1049.4 870.8 1039.2 870.8 1039.2 1014.7 1051.7 1014.7 1051.7 893.7" fill="#242353"/>
  <polygon points="270.3 870.8 216.2 997 160.9 870.9 160.8 870.8 143.4 870.8 143.4 1015.3 155.7 1015.3 155.7 889.3 210.9 1015.4 221.7 1015.4 276.8 886.3 276.8 1015.3 289.1 1015.3 289.1 870.8 270.3 870.8" fill="#242353"/>
  <polygon points="402.7 1119.1 301.8 1395.6 200.8 1119.1 143.3 1119.1 273.5 1452.4 329.5 1452.4 459.2 1119.1 402.7 1119.1" fill="#242353"/>
  <polygon points="573 1119.1 573 1452.4 784.8 1452.4 784.8 1411.7 629.4 1411.7 629.4 1296.5 755.1 1296.5 755.1 1255.8 629.4 1255.8 629.4 1159.8 775 1159.8 775 1119.1 573 1119.1" fill="#242353"/>
  <polygon points="876.9 1119.1 876.9 1160.1 984.3 1160.1 984.3 1451.6 1040.7 1451.6 1040.7 1160.1 1149.1 1160.1 1149.1 1119.1 876.9 1119.1" fill="#242353"/>
</svg>